<?xml version="1.0" encoding="utf-8"?>
<!-- Generator: Adobe Illustrator 19.1.0, SVG Export Plug-In . SVG Version: 6.00 Build 0)  -->
<svg version="1.1" xmlns="http://www.w3.org/2000/svg" xmlns:xlink="http://www.w3.org/1999/xlink" x="0px" y="0px"
	 viewBox="-29 -3 440 500" style="enable-background:new -29 -3 440 500;" xml:space="preserve">
<style type="text/css">
	.st0{display:none;}
	.st1{display:inline;}
	.st2{fill:#888888;}
	.st3{fill:none;stroke:#888888;stroke-width:10;stroke-miterlimit:10;}
	.st4{display:inline;fill:none;stroke:#888888;stroke-width:10;stroke-miterlimit:10;}
	.st5{display:inline;fill:#888888;}
	.st6{fill:none;stroke:#888888;stroke-width:7;stroke-miterlimit:10;}
	.st7{font-family:'HelveticaNeue-Bold';}
	.st8{font-size:378.5629px;}
</style>
<g id="Layer_1" class="st0">
	<g id="Layer_6">
		<g id="Layer_3" class="st1">
			<polygon class="st2" points="59,97 323.6,95.6 319.8,146.8 115.9,148.9 120.3,206 312.9,206 300.4,367.5 190.3,396.6 83.3,364 
				76.5,282.6 127.1,281.3 129.6,325.1 190.9,342.6 251.6,327.6 257.3,256.2 72.7,254.4 			"/>
			<polygon class="st3" points="366.7,443 187.2,492.5 14.5,440.7 -23,6 403,6 			"/>
		</g>
	</g>
	<g id="Layer_5">
		<polygon class="st4" points="368.7,444.8 189.6,494.3 17.4,442.6 -20,9 404.9,9 		"/>
		<path class="st5" d="M53.9,99c0,0,8.4,47,5.2,49.1c-3.1,2.1,133.3-0.1,133.3-0.1S68.6,201.5,67.6,204.6s4.2,50.4,4.2,50.4
			l187.9-1.1l-6.3,72.4c0,0-59.8,21-64,21s-63-20.8-63-20.8l-1-37.6H77l3.1,77l107.1,35.3l116.5-32.7l7.3-158.6l-124.9-2.1
			L315.4,150c0,0,8.4-53.6,5.2-52.5C317.5,98.5,53.9,99,53.9,99z"/>
	</g>
	<polygon class="st5" points="135,101 176,102 176,385 53,352 52,301 135,326 	"/>
	<polygon class="st5" points="211,103 344,103 342,152 252,151 253,230 336,218 325,360 211,387 211,337 293,315 293,272 211,288 	
		"/>
	<polygon class="st4" points="367.7,443.5 188.6,493 16.4,441.3 -21,7.7 403.9,7.7 	"/>
</g>
<g id="Layer_2">
	<path class="st6" d="M363,429.4H19.6c-22,0-40-18-40-40V46c0-22,18-40,40-40H363c22,0,40,18,40,40v343.4
		C403,411.4,385,429.4,363,429.4z"/>
	<text transform="matrix(1 0 0 1 67.8009 352.59)" class="st2 st7 st8">B</text>
</g>
</svg>
