<?xml version="1.0" encoding="utf-8"?>
<!-- Generator: Adobe Illustrator 19.1.0, SVG Export Plug-In . SVG Version: 6.00 Build 0)  -->
<svg version="1.1" xmlns="http://www.w3.org/2000/svg" xmlns:xlink="http://www.w3.org/1999/xlink" x="0px" y="0px"
	 viewBox="0 0 440 500" style="enable-background:new 0 0 440 500;" xml:space="preserve">
<style type="text/css">
	.st0{display:none;}
	.st1{display:inline;}
	.st2{fill:#888888;}
	.st3{fill:none;stroke:#888888;stroke-width:10;stroke-miterlimit:10;}
</style>
<g id="Layer_6" class="st0">
	<g id="Layer_3" class="st1">
		<polygon class="st2" points="88,97 352.6,95.6 348.8,146.8 144.9,148.9 149.3,206 341.9,206 329.4,367.5 219.3,396.6 112.3,364 
			105.5,282.6 156.1,281.3 158.6,325.1 219.9,342.6 280.6,327.6 286.3,256.2 101.7,254.4 		"/>
		<polygon class="st3" points="395.7,443 216.2,492.5 43.5,440.7 6,6 432,6 		"/>
	</g>
</g>
<g id="Layer_5">
	<path class="st2" d="M82.9,99c0,0,8.4,47,5.2,49.1c-3.1,2.1,133.3-0.1,133.3-0.1S97.6,201.5,96.6,204.6c-1,3.1,4.2,50.4,4.2,50.4
		l187.9-1.1l-6.3,72.4c0,0-59.8,21-64,21c-4.2,0-63-20.8-63-20.8l-1-37.6H106l3.1,77l107.1,35.3l116.5-32.7l7.3-158.6l-124.9-2.1
		L344.4,150c0,0,8.4-53.6,5.2-52.5C346.5,98.5,82.9,99,82.9,99z"/>
	<polygon class="st3" points="397.7,444.8 218.6,494.3 46.4,442.6 9,9 433.9,9 	"/>
</g>
</svg>
